<svg width="26" height="26" viewBox="0 0 26 26" fill="none" xmlns="http://www.w3.org/2000/svg">
<path d="M25.9876 13.2432C25.9876 12.178 25.8991 11.4007 25.7077 10.5946H13.259V15.4024H20.5661C20.4188 16.5972 19.6233 18.3966 17.8554 19.6057L17.8306 19.7667L21.7667 22.746L22.0394 22.7726C24.5438 20.5126 25.9876 17.1874 25.9876 13.2432Z" fill="#4285F4"/>
<path d="M13.259 25.9107C16.8389 25.9107 19.8442 24.759 22.0394 22.7726L17.8554 19.6057C16.7358 20.3686 15.2331 20.9012 13.259 20.9012C9.75274 20.9012 6.77686 18.6413 5.71604 15.5176L5.56055 15.5305L1.46778 18.6254L1.41426 18.7708C3.5946 23.0029 8.0732 25.9107 13.259 25.9107Z" fill="#34A853"/>
<path d="M5.71604 15.5176C5.43613 14.7115 5.27414 13.8478 5.27414 12.9553C5.27414 12.0628 5.43613 11.1992 5.70131 10.3931L5.6939 10.2214L1.54984 7.07677L1.41426 7.13978C0.515633 8.89597 0 10.8681 0 12.9553C0 15.0426 0.515633 17.0146 1.41426 18.7708L5.71604 15.5176Z" fill="#FBBC05"/>
<path d="M13.259 5.00937C15.7487 5.00937 17.4281 6.06018 18.3858 6.93833L22.1277 3.36839C19.8296 1.28115 16.8389 0 13.259 0C8.0732 0 3.5946 2.90773 1.41426 7.13978L5.70131 10.3931C6.77686 7.26938 9.75274 5.00937 13.259 5.00937Z" fill="#EB4335"/>
</svg>
