<?xml version="1.0"?>
<svg xmlns="http://www.w3.org/2000/svg" xmlns:xlink="http://www.w3.org/1999/xlink" xmlns:svgjs="http://svgjs.com/svgjs" version="1.1" width="512" height="512" x="0" y="0" viewBox="0 0 512 512" style="enable-background:new 0 0 512 512" xml:space="preserve" class=""><g><g xmlns="http://www.w3.org/2000/svg"><path d="m190.479 368.05c-15.853 0-28.75 12.897-28.75 28.75v44.992c0 15.853 12.897 28.75 28.75 28.75s28.75-12.897 28.75-28.75v-44.992c0-15.853-12.897-28.75-28.75-28.75zm13.75 73.742c0 7.582-6.168 13.75-13.75 13.75s-13.75-6.168-13.75-13.75v-44.992c0-7.582 6.168-13.75 13.75-13.75s13.75 6.168 13.75 13.75z" fill="#ffffff" data-original="#000000" style="" class=""/><path d="m285.444 152.646c-12.425 0-22.534 10.108-22.534 22.534v117.559c0 9.193 5.498 17.38 14.011 20.86 2.721 1.11 5.587 1.673 8.52 1.673 6.01 0 11.872-2.459 16.084-6.749l20.202-20.581 20.207 20.583c4.333 4.413 10.127 6.756 16.05 6.756 2.872 0 5.775-.552 8.556-1.686 8.508-3.478 14.006-11.666 14.006-20.858v-117.557c0-12.425-10.108-22.534-22.533-22.534s-22.534 10.108-22.534 22.534v62.75c-3.916-3.006-8.783-4.687-13.751-4.687-4.967 0-9.833 1.681-13.75 4.686v-62.75c0-12.425-10.108-22.533-22.534-22.533zm30.907 97.854c1.408-1.434 3.368-2.257 5.377-2.257s3.968.822 5.375 2.255l10.524 10.72c2.133 2.174 5.371 2.841 8.19 1.688 2.82-1.153 4.662-3.896 4.662-6.942v-80.784c0-4.154 3.379-7.534 7.534-7.534 4.154 0 7.533 3.379 7.533 7.534v117.559c0 3.074-1.838 5.811-4.676 6.971-2.85 1.163-6.082.498-8.233-1.693l-25.557-26.035c-1.41-1.437-3.339-2.246-5.352-2.246s-3.942.81-5.353 2.246l-25.553 26.032c-1.43 1.456-3.341 2.257-5.381 2.257-.98 0-1.94-.189-2.848-.56-2.845-1.163-4.683-3.9-4.683-6.974v-117.557c0-4.154 3.379-7.534 7.534-7.534s7.534 3.379 7.534 7.534v80.784c0 3.046 1.842 5.79 4.662 6.942 2.817 1.152 6.055.486 8.19-1.688z" fill="#ffffff" data-original="#000000" style="" class=""/><path d="m95.1 152.646c-12.425 0-22.534 10.108-22.534 22.534v38.154l-30.858-49.991c-5.267-8.532-15.68-12.579-25.327-9.841-9.645 2.737-16.381 11.651-16.381 21.678v117.559c0 12.425 10.108 22.533 22.534 22.533s22.534-10.108 22.534-22.533v-38.154l30.858 49.992c4.074 6.597 11.421 10.696 19.174 10.696 2.076 0 4.145-.288 6.152-.857 9.645-2.737 16.381-11.651 16.381-21.677v-117.559c.001-12.426-10.108-22.534-22.533-22.534zm7.534 140.093c0 3.352-2.252 6.332-5.474 7.247-.674.191-1.367.288-2.06.288-2.592 0-5.049-1.371-6.411-3.577l-44.74-72.48c-1.391-2.253-3.829-3.561-6.382-3.561-.68 0-1.369.093-2.047.286-3.226.915-5.453 3.861-5.453 7.215v64.583c0 4.154-3.379 7.533-7.534 7.533s-7.533-3.38-7.533-7.534v-117.559c0-3.352 2.252-6.333 5.477-7.248 3.224-.914 6.707.438 8.468 3.29l44.74 72.48c1.761 2.854 5.203 4.19 8.429 3.276 3.226-.916 5.453-3.862 5.453-7.215v-64.583c0-4.154 3.379-7.534 7.534-7.534s7.534 3.379 7.534 7.534v117.559z" fill="#ffffff" data-original="#000000" style="" class=""/><path d="m60.994 368.05h-23.427c-4.142 0-7.5 3.358-7.5 7.5v38.146c0 4.142 3.358 7.5 7.5 7.5h23.427c14.652 0 26.572-11.921 26.572-26.574 0-14.651-11.92-26.572-26.572-26.572zm0 38.146h-15.927v-23.146h15.927c6.381 0 11.572 5.191 11.572 11.572 0 6.382-5.191 11.574-11.572 11.574z" fill="#ffffff" data-original="#000000" style="" class=""/><path d="m60.994 337.983h-38.46c-12.426 0-22.534 10.108-22.534 22.533v117.559c0 12.425 10.108 22.534 22.534 22.534s22.534-10.108 22.534-22.534v-26.812h15.927c31.231 0 56.64-25.409 56.64-56.641-.001-31.23-25.409-56.639-56.641-56.639zm0 98.281h-23.427c-4.142 0-7.5 3.358-7.5 7.5v34.312c0 4.154-3.379 7.534-7.534 7.534s-7.533-3.381-7.533-7.535v-117.559c0-4.154 3.379-7.533 7.534-7.533h38.46c22.96 0 41.64 18.68 41.64 41.64s-18.68 41.641-41.64 41.641z" fill="#ffffff" data-original="#000000" style="" class=""/><path d="m489.466 337.983h-57.925c.622-2.788.96-5.643.96-8.519v-84.229c0-4.142-3.358-7.5-7.5-7.5s-7.5 3.358-7.5 7.5v84.229c0 2.931-.545 5.83-1.575 8.544-9.514.407-17.513 6.739-20.402 15.392-.683.058-1.368.097-2.056.097h-14.048c-2.958-8.997-11.434-15.514-21.408-15.514h-43.178c-14.459 0-27.551 5.946-36.974 15.514h-47.628c-10.477-9.625-24.438-15.514-39.753-15.514-7.44 0-14.555 1.403-21.113 3.934-2.263-3.732-3.489-8.034-3.489-12.453v-14.192h5.936c4.142 0 7.5-3.358 7.5-7.5s-3.358-7.5-7.5-7.5h-17.617c-4.154 0-7.534-3.379-7.534-7.533v-117.559c0-4.154 3.38-7.534 7.534-7.534h72.566c4.154 0 7.534 3.379 7.534 7.534s-3.379 7.534-7.534 7.534h-57.533c-4.142 0-7.5 3.358-7.5 7.5v28.712c0 4.142 3.358 7.5 7.5 7.5h41.569c4.154 0 7.534 3.379 7.534 7.534s-3.379 7.534-7.534 7.534h-41.569c-4.142 0-7.5 3.358-7.5 7.5v28.712c0 4.142 3.358 7.5 7.5 7.5h57.533c4.154 0 7.534 3.379 7.534 7.534 0 4.154-3.379 7.533-7.534 7.533h-17.922c-4.142 0-7.5 3.358-7.5 7.5s3.358 7.5 7.5 7.5h17.922c12.425 0 22.534-10.108 22.534-22.533s-10.108-22.534-22.534-22.534h-50.033v-13.712h34.069c12.425 0 22.534-10.108 22.534-22.534s-10.108-22.534-22.534-22.534h-34.069v-13.712h50.033c12.425 0 22.534-10.108 22.534-22.534s-10.108-22.534-22.534-22.534h-60.885v-26.74c0-13.251 10.781-24.033 24.033-24.033h155.74v6.161c0 10.813 8.796 19.609 19.609 19.609h26.47v30.104c0 10.813 8.796 19.609 19.609 19.609h6.163v30.852c0 4.142 3.358 7.5 7.5 7.5s7.5-3.358 7.5-7.5v-30.852h6.16c10.813 0 19.609-8.796 19.609-19.609v-30.104h26.47c10.813 0 19.609-8.796 19.609-19.609v-27.322c0-10.813-8.796-19.609-19.609-19.609h-26.47v-30.103c0-10.813-8.796-19.609-19.609-19.609h-27.323c-10.813 0-19.609 8.797-19.609 19.609v30.103h-26.47c-10.813 0-19.609 8.796-19.609 19.609v6.161h-155.739c-21.522 0-39.033 17.51-39.033 39.033v26.986c-10.857 1.609-19.216 10.99-19.216 22.287v117.559c0 11.297 8.358 20.677 19.216 22.287v14.438c0 6.932 1.85 13.693 5.288 19.61-14.826 10.689-24.504 28.093-24.504 47.726v44.992c0 32.432 26.385 58.817 58.817 58.817s58.817-26.385 58.817-58.817v-44.991c0-10.254-2.644-19.901-7.277-28.303h25.529c-2.97 6.533-4.638 13.777-4.638 21.409 0 28.631 23.293 51.924 51.924 51.924h13.787c3.781 0 6.857 3.075 6.857 6.855 0 3.781-3.076 6.856-6.857 6.856h-43.178c-12.425 0-22.534 10.108-22.534 22.534s10.108 22.534 22.534 22.534h4.517c4.142 0 7.5-3.358 7.5-7.5s-3.358-7.5-7.5-7.5h-4.517c-4.154 0-7.534-3.379-7.534-7.534s3.379-7.534 7.534-7.534h43.178c12.052 0 21.857-9.805 21.857-21.856s-9.805-21.855-21.857-21.855h-13.787c-20.36 0-36.924-16.564-36.924-36.924 0-20.359 16.564-36.922 36.924-36.922h43.178c4.154 0 7.533 3.379 7.533 7.533s-3.379 7.534-7.533 7.534h-43.178c-12.052 0-21.857 9.804-21.857 21.855 0 12.052 9.805 21.857 21.857 21.857h13.787c20.36 0 36.924 16.563 36.924 36.923s-16.564 36.924-36.924 36.924h-1.634c-4.142 0-7.5 3.358-7.5 7.5s3.358 7.5 7.5 7.5h1.634c28.631 0 51.924-23.293 51.924-51.924 0-28.63-23.293-51.923-51.924-51.923h-13.787c-3.781 0-6.857-3.076-6.857-6.857 0-3.78 3.076-6.855 6.857-6.855h43.178c9.616 0 17.839-6.057 21.069-14.554h14.387c.779 0 1.558-.025 2.334-.071 3.21 8.535 11.454 14.625 21.097 14.625h13.75v95.025c0 12.425 10.108 22.534 22.534 22.534s22.534-10.108 22.534-22.534v-95.026h13.75c12.425 0 22.534-10.109 22.534-22.534-.001-12.425-10.109-22.533-22.535-22.533zm-128.816-257.271c0-2.542 2.067-4.609 4.609-4.609h33.97c4.142 0 7.5-3.358 7.5-7.5v-37.603c0-2.542 2.067-4.609 4.609-4.609h27.323c2.542 0 4.609 2.068 4.609 4.609v37.603c0 4.142 3.358 7.5 7.5 7.5h33.97c2.542 0 4.609 2.067 4.609 4.609v27.322c0 2.542-2.067 4.609-4.609 4.609h-33.97c-4.142 0-7.5 3.358-7.5 7.5v37.604c0 2.542-2.067 4.609-4.609 4.609h-27.323c-2.542 0-4.609-2.067-4.609-4.609v-37.604c0-4.142-3.358-7.5-7.5-7.5h-33.97c-2.542 0-4.609-2.067-4.609-4.609zm-126.354 361.08c0 24.161-19.656 43.817-43.817 43.817s-43.817-19.656-43.817-43.817v-44.992c0-24.161 19.656-43.817 43.817-43.817s43.817 19.656 43.817 43.817zm255.17-73.742h-21.25c-4.142 0-7.5 3.358-7.5 7.5v102.525c0 4.154-3.379 7.534-7.534 7.534s-7.534-3.379-7.534-7.534v-102.525c0-4.142-3.358-7.5-7.5-7.5h-21.248c-4.154 0-7.534-3.38-7.534-7.534s3.379-7.533 7.534-7.533h72.566c4.154 0 7.534 3.379 7.534 7.533s-3.379 7.534-7.534 7.534z" fill="#ffffff" data-original="#000000" style="" class=""/></g></g></svg>
