<svg width="28" height="28" viewBox="0 0 28 28" fill="none" xmlns="http://www.w3.org/2000/svg">
<g clip-path="url(#clip0)">
<path d="M27.7602 0.24035C27.5282 0.00820157 27.18 -0.0632203 26.8756 0.0587875L0.516165 10.6024C0.214509 10.723 0.0125479 11.0103 0.00100882 11.3349C-0.0105303 11.6595 0.170595 11.9604 0.46279 12.1021L10.8571 17.1433L15.8983 27.5377C16.0358 27.8212 16.3229 28 16.6362 28C16.6459 28 16.6557 27.9998 16.6655 27.9994C16.9901 27.9879 17.2773 27.786 17.398 27.4843L27.9419 1.12508C28.0637 0.82042 27.9923 0.472389 27.7602 0.24035Z" fill="#A0C417"/>
<path d="M27.7598 0.240356L10.8567 17.1433L15.8979 27.5376C16.0354 27.8211 16.3225 28 16.6358 28C16.6455 28 16.6553 27.9998 16.6651 27.9994C16.9897 27.9879 17.2769 27.7859 17.3976 27.4843L27.9414 1.12509C28.0632 0.820427 27.9918 0.472396 27.7598 0.240356Z" fill="#4B761F"/>
</g>
<defs>
<clipPath id="clip0">
<rect width="28" height="28" fill="white"/>
</clipPath>
</defs>
</svg>
