<svg width="20" height="20" viewBox="0 0 20 20" fill="none" xmlns="http://www.w3.org/2000/svg">
<path d="M9.96094 7.89105C10.3925 7.89105 10.7422 8.2408 10.7422 8.67234C10.7422 9.10388 10.3925 9.45363 9.96094 9.45363C9.52942 9.45363 9.17969 9.10388 9.17969 8.67234C9.17969 8.2408 9.52942 7.89105 9.96094 7.89105ZM12.6953 8.67234C12.6953 9.10388 13.045 9.45363 13.4766 9.45363C13.9081 9.45363 14.2578 9.10388 14.2578 8.67234C14.2578 8.2408 13.9081 7.89105 13.4766 7.89105C13.045 7.89105 12.6953 8.2408 12.6953 8.67234ZM5.66406 8.67234C5.66406 9.10388 6.01379 9.45363 6.44531 9.45363C6.87683 9.45363 7.22656 9.10388 7.22656 8.67234C7.22656 8.2408 6.87683 7.89105 6.44531 7.89105C6.01379 7.89105 5.66406 8.2408 5.66406 8.67234ZM19.313 15.9994C20.2274 16.9137 20.2274 18.4006 19.3135 19.3145C18.8567 19.7714 18.2564 20 17.6562 20C17.0561 20 16.4558 19.7714 15.999 19.3145L11.7104 15.0353C11.6193 14.9443 11.5521 14.8325 11.5147 14.7092L10.5806 11.6339C10.4977 11.3612 10.5699 11.0652 10.7689 10.8612C10.9679 10.6573 11.2621 10.578 11.5367 10.654L14.6899 11.5274C14.8198 11.5634 14.938 11.6322 15.0334 11.7275L19.313 15.9994ZM12.9527 14.0675L15.8469 16.9554L16.9519 15.8503L14.0749 12.9786L12.4886 12.5391L12.9527 14.0675ZM18.2086 17.1048L18.0579 16.9542L16.953 18.0591L17.1033 18.209C17.4084 18.5143 17.9041 18.5143 18.2086 18.2096C18.5133 17.905 18.5133 17.4094 18.2086 17.1048V17.1048ZM10.4346 16.1904C10.2902 16.1967 10.144 16.1999 10 16.1999C8.74374 16.1999 7.53433 15.966 6.40549 15.5047C6.21323 15.4262 5.99747 15.4275 5.80612 15.5082L2.24884 17.0099L3.44742 14.1705C3.56461 13.893 3.51166 13.5725 3.31116 13.3473C2.16721 12.0621 1.5625 10.5244 1.5625 8.90077C1.5625 4.85454 5.3476 1.56258 10 1.56258C14.6524 1.56258 18.4375 4.85454 18.4375 8.90077C18.4375 9.8603 18.2019 10.8236 17.7371 11.7638C17.5459 12.1506 17.7045 12.6192 18.0913 12.8104C18.4781 13.0016 18.9467 12.8431 19.1379 12.4563C19.7099 11.2988 20 10.1026 20 8.90077C20 3.99283 15.5141 0 10 0C4.48608 0 0 3.99283 0 8.90077C0 10.7533 0.628052 12.5077 1.82175 14.0039L0.0614929 18.1737C-0.0621033 18.4666 0.00411989 18.8052 0.228882 19.0299C0.378418 19.1795 0.578156 19.2588 0.781403 19.2588C0.883789 19.2588 0.987091 19.2387 1.08505 19.1973L6.12137 17.0712C7.3497 17.5301 8.65295 17.7625 10 17.7625C10.1666 17.7625 10.3358 17.7587 10.5029 17.7515C10.934 17.7326 11.2682 17.3679 11.2492 16.9368C11.2305 16.5057 10.865 16.1704 10.4346 16.1904V16.1904Z" fill="#727064"/>
</svg>
