<svg width="20" height="20" viewBox="0 0 20 20" fill="none" xmlns="http://www.w3.org/2000/svg">
<g clip-path="url(#clip0)">
<path d="M20 7.10419C20 8.79532 19.3698 10.3441 18.0167 11.9766C16.8059 13.4375 15.0662 14.9202 13.0513 16.6371C12.3628 17.2237 11.5826 17.8886 10.7732 18.597C10.5611 18.7825 10.2893 18.8855 10.007 18.8872H10C9.71527 18.8872 9.44077 18.784 9.22684 18.5967C8.41888 17.8902 7.63992 17.226 6.95267 16.6402L6.94916 16.6376C4.93454 14.9205 3.19412 13.4375 1.98364 11.9766C0.630188 10.3441 0 8.79532 0 7.10419C0 5.46097 0.563507 3.9447 1.58661 2.83493C2.62207 1.71188 4.04266 1.09375 5.58716 1.09375C6.74179 1.09375 7.79877 1.45844 8.72971 2.17819C9.19952 2.54166 9.62509 2.98599 10 3.50494L10.007 3.49564C10.3804 2.98065 10.8037 2.53937 11.2706 2.17819C12.2012 1.45844 13.2587 1.09375 14.4128 1.09375C15.9576 1.09375 17.3782 1.71188 18.4134 2.83493C19.4365 3.9447 20 5.46051 20 7.10419V7.10419Z" fill="#A0C417"/>
<path d="M20.0001 7.10419C20.0001 8.79532 19.3699 10.3441 18.0167 11.9766C16.8059 13.4375 15.0663 14.9202 13.0514 16.6371C12.3629 17.2237 11.5827 17.8886 10.7732 18.597C10.5611 18.7825 10.2894 18.8855 10.0071 18.8872V3.49564C10.3805 2.98065 10.8037 2.53937 11.2707 2.17819C12.2013 1.45844 13.2587 1.09375 14.4129 1.09375C15.9577 1.09375 17.3783 1.71188 18.4135 2.83493C19.4366 3.9447 20.0001 5.46051 20.0001 7.10419V7.10419Z" fill="#4B761F"/>
</g>
<defs>
<clipPath id="clip0">
<rect width="20" height="20" fill="white"/>
</clipPath>
</defs>
</svg>
